<svg xmlns="http://www.w3.org/2000/svg" xmlns:xlink="http://www.w3.org/1999/xlink" width="500" zoomAndPan="magnify" viewBox="0 0 375 374.999991" height="500" preserveAspectRatio="xMidYMid meet" version="1.0"><defs><g/></defs><path stroke-linecap="butt" transform="matrix(0.999963, -0.493871, 0.493871, 0.999963, 43.311798, 186.741271)" fill="none" stroke-linejoin="miter" d="M -5.451165 44.04476 L 5.588724 44.04392 C 5.494519 44.638042 5.418965 45.202312 5.358959 45.743009 C 5.297402 46.286847 5.267172 46.830531 5.268307 47.381894 C 5.267834 49.84269 5.768011 51.542901 6.765697 52.480977 C 7.777534 53.429948 8.863796 53.90394 10.027624 53.904502 C 11.120966 53.90541 12.096542 53.52783 12.951209 52.77021 C 13.807466 52.017281 14.238867 50.550596 14.237619 48.378024 C 14.237338 47.041897 14.050799 45.734878 13.673311 44.458557 C 13.295823 43.182235 12.677502 41.66587 11.821487 39.911012 C 10.962333 38.154603 9.760932 35.920557 8.221976 33.207285 C 7.087443 31.193772 6.073374 29.149907 5.17659 27.066308 C 4.276626 24.973326 3.551011 22.978172 2.999744 21.080847 C 2.459372 19.16937 2.18984 17.547914 2.189558 16.211788 C 2.189871 13.079013 2.900829 10.484725 4.316191 8.433655 C 5.747215 6.382508 7.578679 4.857272 9.815274 3.856356 C 12.047178 2.857029 14.361405 2.35541 16.748575 2.354677 C 19.588435 2.354859 22.144731 2.984551 24.419014 4.240613 C 26.707332 5.484076 28.506757 7.32986 29.823568 9.781069 C 31.14038 12.232277 31.797396 15.252183 31.800899 18.843891 C 31.799147 19.764935 31.731792 20.723894 31.601975 21.722318 L 20.561779 21.660504 C 20.816612 20.282402 20.943842 19.07566 20.943429 18.032449 C 20.94318 16.063502 20.59629 14.638224 19.904349 13.761305 C 19.22024 12.884348 18.397308 12.446659 17.437106 12.445099 C 16.639819 12.445873 15.814521 12.80392 14.958072 13.51769 C 14.099996 14.218937 13.672672 15.558725 13.672922 17.527672 C 13.673011 18.82464 13.921958 20.400771 14.422903 22.257618 C 14.922296 24.117604 15.779577 26.13091 16.994783 28.305365 C 19.330409 32.49027 21.200339 36.257665 22.598292 39.604449 C 24.004038 42.943363 24.711838 46.09773 24.710719 49.066038 C 24.710215 52.159654 23.964981 54.791703 22.476608 56.966875 C 20.996066 59.14201 19.100934 60.780338 16.795904 61.880272 C 14.498782 62.995831 12.119028 63.551028 9.661373 63.552106 C 7.150446 63.550313 4.719573 62.943502 2.373446 61.730084 C 0.0351882 60.524459 -1.883149 58.705886 -3.383115 56.277505 C -4.895567 53.858583 -5.649858 50.806259 -5.650681 47.122121 C -5.649312 46.12276 -5.583854 45.096456 -5.451165 44.04476 Z M -5.451165 44.04476 " stroke="#25408f" stroke-width="12.150431" stroke-opacity="1" stroke-miterlimit="4"/><path stroke-linecap="butt" transform="matrix(1.07616, -0.292768, 0.292768, 1.07616, 78.000791, 168.594349)" fill="none" stroke-linejoin="miter" d="M 58.19513 11.250519 L 51.99488 12.826944 C 53.073817 15.879117 53.805123 19.101694 54.182958 22.489454 C 54.560171 25.866157 54.571188 29.201313 54.211087 32.486324 C 53.857124 35.762115 53.121779 38.785331 52.00689 41.54921 C 50.904898 44.305709 49.427536 46.600739 47.569584 48.440138 C 45.712552 50.276159 43.487378 51.423999 40.894062 51.883658 C 38.126833 51.301439 35.728428 50.057299 33.696387 48.146939 C 31.675106 46.250397 29.870321 44.238521 28.276814 42.117151 C 27.655898 44.412868 26.558398 46.499076 24.987693 48.376693 C 23.423747 50.256149 21.407169 51.424438 18.937037 51.884942 C 15.723691 51.181357 12.861402 49.894504 10.35017 48.024382 C 7.838639 46.168698 5.795909 43.870671 4.224438 41.134601 C 2.663106 38.401289 1.6954 35.393895 1.3161 32.118259 C 0.939558 28.832485 1.25105 25.432615 2.249657 21.92203 L 13.22648 21.920929 C 12.563164 23.718717 12.243706 25.693537 12.263806 27.847848 C 12.283906 30.00216 12.564463 32.093026 13.104558 34.123825 C 13.647412 36.144486 14.416203 37.921709 15.415232 39.453034 C 16.428077 40.973599 17.581919 42.002571 18.879218 42.544249 C 20.632506 41.32974 21.761171 39.46254 22.261833 36.941728 C 22.761874 34.409859 23.051552 31.490448 23.134247 28.184416 L 23.271869 28.185558 L 32.426771 27.2496 C 32.466998 29.16982 32.947724 31.071944 33.86373 32.961813 C 34.783415 34.838163 35.913382 36.488596 37.24871 37.904512 C 38.586499 39.324728 39.924334 40.331159 41.258834 40.922885 C 42.731786 39.911606 43.795868 38.415225 44.46122 36.4365 C 45.133629 34.445176 45.471648 32.188651 45.470977 29.669386 C 45.469685 27.139062 45.165738 24.493733 44.550538 21.738319 C 43.949154 18.972145 43.092558 16.303512 41.980748 13.732419 C 40.876616 11.159786 39.549952 8.871444 37.999835 6.870773 C 40.346904 6.115445 42.940786 5.09332 45.776559 3.7958 C 48.62339 2.497658 52.05433 0.933735 56.064456 -0.904568 Z M 58.19513 11.250519 " stroke="#25408f" stroke-width="12.150431" stroke-opacity="1" stroke-miterlimit="4"/><path stroke-linecap="butt" transform="matrix(1.113867, -0.0559965, 0.0559965, 1.113867, 151.290947, 151.030096)" fill="none" stroke-linejoin="miter" d="M 21.188849 8.616662 C 24.709721 8.618317 27.579954 9.215004 29.792375 10.409868 C 32.00847 11.60141 33.647267 13.184761 34.70894 15.156423 C 35.778313 17.114445 36.316956 19.305298 36.314726 21.72146 C 36.315899 24.488485 35.666541 26.801976 34.370328 28.658609 C 33.074114 30.515242 31.305579 32.000945 29.057724 33.115365 C 26.824565 34.216496 24.290647 35.021954 21.466464 35.532264 C 18.646307 36.032257 15.733517 36.282107 12.721098 36.281464 C 10.764241 36.281283 8.758781 36.201506 6.704896 36.038635 C 4.66553 35.865973 2.639823 35.630873 0.627777 35.333335 L 0.626489 24.616097 C 1.210983 24.778744 1.781661 24.93719 2.34202 25.09161 C 2.913577 25.232565 3.509972 25.367755 4.135056 25.490359 C 4.347927 22.232604 5.215725 19.340931 6.735303 16.808169 C 8.268874 14.27611 10.273321 12.283242 12.752497 10.822744 C 15.242694 9.352279 18.057143 8.617036 21.188849 8.616662 Z M 16.81182 27.249865 C 18.484629 27.249794 20.011611 27.081074 21.389268 26.743528 C 22.766749 26.409481 23.885254 25.855505 24.740755 25.091919 C 25.59696 24.314341 26.027686 23.280409 26.026289 21.982776 C 26.028215 20.688816 25.481744 19.630307 24.390022 18.81442 C 23.305297 17.998885 22.056399 17.588915 20.639655 17.58783 C 19.208742 17.589541 17.959791 18.017723 16.885631 18.875524 C 15.825463 19.734028 15.013954 20.808435 14.454249 22.105917 C 13.891047 23.403222 13.611014 24.71827 13.610477 26.054383 C 13.609208 26.219144 13.611261 26.38758 13.60964 26.559338 C 13.611869 26.724276 13.630357 26.91458 13.672277 27.127103 C 14.213777 27.168353 14.745311 27.198581 15.263204 27.22111 C 15.795265 27.240844 16.310363 27.249204 16.81182 27.249865 Z M 15.050481 37.661062 C 16.602866 39.916906 18.536305 41.778089 20.850622 43.248109 C 23.168964 44.707811 25.645577 45.600333 28.276785 45.928997 L 28.279061 58.161277 C 24.389948 57.74132 20.820777 56.537867 17.575223 54.547596 C 14.339636 52.568347 11.614569 50.060669 9.399673 47.031557 C 7.184952 43.998947 5.596993 40.70677 4.639293 37.155203 C 6.312396 37.358549 7.700063 37.51949 8.802645 37.63103 C 9.916249 37.732604 10.951682 37.784657 11.91262 37.783869 C 12.41058 37.784354 12.923235 37.77155 13.443238 37.752102 C 13.973735 37.733181 14.508434 37.700443 15.050481 37.661062 Z M 15.050481 37.661062 " stroke="#25408f" stroke-width="12.150431" stroke-opacity="1" stroke-miterlimit="4"/><path stroke-linecap="butt" transform="matrix(1.107682, 0.129901, -0.129901, 1.107682, 200.288444, 149.159037)" fill="none" stroke-linejoin="miter" d="M 26.393346 17.83562 C 29.200303 17.834406 31.405549 18.746592 33.009492 20.575656 C 34.622647 22.39306 35.657735 24.814285 36.115574 27.846287 C 36.576892 30.877881 36.451858 34.232146 35.750501 37.90438 L 23.760672 37.906906 C 24.222153 36.068375 24.469736 34.420673 24.509972 32.959507 C 24.563307 31.489752 24.331903 30.328456 23.822311 29.471325 C 23.323154 28.612971 22.444067 28.183561 21.188528 28.182688 C 19.432491 28.184085 17.899253 28.822337 16.581857 30.098261 C 15.264461 31.374184 14.249961 33.037767 13.534879 35.089418 C 12.82901 37.129408 12.537443 39.304191 12.659772 41.610287 C 13.081331 43.70144 13.647942 45.856691 14.359196 48.072564 L 5.084248 48.070568 C 3.155159 42.386371 1.918406 36.952474 1.377061 31.764989 C 0.836124 26.580983 1.045029 21.626427 2.007254 16.900913 L 14.177351 16.901932 C 13.627835 18.320554 13.171598 19.812873 12.812934 21.385439 C 12.467369 22.949415 12.187877 24.565594 11.971794 26.241339 C 13.308659 23.778226 15.145866 21.732515 17.483009 20.100728 C 19.830587 18.467716 22.802746 17.710089 26.393346 17.83562 Z M 26.393346 17.83562 " stroke="#25408f" stroke-width="12.150431" stroke-opacity="1" stroke-miterlimit="4"/><path stroke-linecap="butt" transform="matrix(1.072877, 0.304579, -0.304579, 1.072877, 248.590126, 155.510176)" fill="none" stroke-linejoin="miter" d="M 13.228219 21.921779 C 12.566069 23.719039 12.177408 25.671676 12.064147 27.78643 C 11.961493 29.887251 12.120651 31.935591 12.539706 33.924712 C 12.955391 35.91479 13.615429 37.649813 14.513079 39.131693 C 15.413141 40.609248 16.510272 41.626716 17.805927 42.176402 C 19.276588 41.085328 20.394455 39.508222 21.159528 37.445084 C 21.933754 35.375707 22.392404 33.0027 22.53548 30.326063 C 22.691076 27.642231 22.548514 24.882843 22.106837 22.04453 C 21.669986 19.197565 20.935631 16.456904 19.903772 13.822546 C 18.882978 11.188688 17.602813 8.872404 16.058951 6.871281 C 18.39696 6.116522 20.985603 5.090359 23.82151 3.793751 C 26.668482 2.497643 30.098525 0.934061 34.109727 -0.903733 L 36.238321 11.249729 L 30.038041 12.827881 C 31.119708 15.881366 31.851332 19.099762 32.227131 22.48835 C 32.60343 25.865874 32.61464 29.201406 32.257891 32.484839 C 31.910294 35.762033 31.180648 38.783595 30.068954 41.549526 C 28.957759 44.304393 27.472556 46.601096 25.613343 48.439635 C 23.7575 50.277218 21.531404 51.426193 18.938426 51.885604 C 15.722939 51.178243 12.860597 49.893669 10.349487 48.025142 C 7.837876 46.167681 5.798493 43.870322 4.224597 41.134979 C 2.665136 38.39918 1.695485 35.393994 1.315644 32.119421 C 0.939673 28.832828 1.249466 25.435293 2.250806 21.921536 Z M 13.228219 21.921779 " stroke="#25408f" stroke-width="12.150431" stroke-opacity="1" stroke-miterlimit="4"/><path stroke-linecap="butt" transform="matrix(1.010709, 0.471489, -0.471489, 1.010709, 291.932623, 168.231829)" fill="none" stroke-linejoin="miter" d="M 21.189347 8.618919 C 24.710273 8.618997 27.577288 9.213984 29.793354 10.410228 C 32.007939 11.603299 33.646299 13.184986 34.708433 15.155289 C 35.780302 17.113322 36.314688 19.302762 36.314768 21.722128 C 36.314797 24.489355 35.665933 26.801775 34.371348 28.657905 C 33.073589 30.515517 31.304875 32.001502 29.06055 33.114168 C 26.822786 34.216043 24.292218 35.021645 21.465672 35.532455 C 18.645686 36.032474 15.732212 36.282375 12.722075 36.28364 C 10.761867 36.282092 8.756814 36.200978 6.705432 36.037124 C 4.665267 35.864173 2.639287 35.630497 0.626012 35.332921 L 0.627324 24.615047 C 1.210454 24.77975 1.782793 24.937892 2.341168 25.090954 C 2.913933 25.233438 3.510397 25.368732 4.133948 25.487524 C 4.347698 22.234084 5.216068 19.340024 6.737366 16.809999 C 8.268186 14.275531 10.271631 12.281965 12.752567 10.823165 C 15.243238 9.352094 18.053947 8.616781 21.189347 8.618919 Z M 16.809664 27.250001 C 18.483161 27.250027 20.009201 27.083085 21.389478 26.744519 C 22.76658 26.407434 23.884721 25.854909 24.742209 25.0916 C 25.598429 24.317287 26.026208 23.279056 26.028508 21.983254 C 26.026153 20.685759 25.479756 19.630461 24.387835 18.814188 C 23.306917 17.996646 22.058147 17.589785 20.638563 17.587256 C 19.209456 17.589168 17.959932 18.017469 16.886817 18.873637 C 15.826185 19.731712 15.014992 20.809669 14.453237 22.107507 C 13.890001 23.402171 13.611356 24.718669 13.609473 26.05679 C 13.611354 26.218237 13.609849 26.388993 13.609824 26.562923 C 13.611706 26.72437 13.630087 26.912903 13.672799 27.128735 C 14.212358 27.166898 14.744301 27.19702 15.265454 27.220581 C 15.79613 27.2397 16.31136 27.250565 16.809664 27.250001 Z M 15.049202 37.659967 C 16.600289 39.916204 18.536533 41.780199 20.853279 43.250261 C 23.168757 44.70932 25.645339 45.602387 28.278369 45.92777 L 28.27663 58.16087 C 24.390976 57.743477 20.821344 56.537095 17.57535 54.549765 C 14.340147 52.568996 11.616018 50.059949 9.399578 47.031935 C 7.18483 43.999265 5.599189 40.707906 4.637999 37.156163 C 6.313795 37.359954 7.700984 37.516731 8.804219 37.628187 C 9.915497 37.732026 10.951454 37.782109 11.910398 37.783092 C 12.413357 37.784221 12.921396 37.771386 13.442132 37.752628 C 13.973871 37.732603 14.508996 37.703267 15.049202 37.659967 Z M 15.049202 37.659967 " stroke="#25408f" stroke-width="12.150431" stroke-opacity="1" stroke-miterlimit="4"/><g fill="#ffffff" fill-opacity="1"><g transform="translate(66.523752, 233.739518)"><g><path d="M -6.90625 -0.25 L 4.125 -5.6875 C 4.320312 -5.070312 4.523438 -4.476562 4.734375 -3.90625 C 4.941406 -3.332031 5.179688 -2.773438 5.453125 -2.234375 C 6.671875 0.234375 8.015625 1.6875 9.484375 2.125 C 10.953125 2.570312 12.269531 2.507812 13.4375 1.9375 C 14.53125 1.394531 15.316406 0.539062 15.796875 -0.625 C 16.285156 -1.800781 15.988281 -3.476562 14.90625 -5.65625 C 14.25 -6.988281 13.414062 -8.195312 12.40625 -9.28125 C 11.394531 -10.375 10.03125 -11.585938 8.3125 -12.921875 C 6.59375 -14.253906 4.285156 -15.894531 1.390625 -17.84375 C -0.710938 -19.300781 -2.726562 -20.851562 -4.65625 -22.5 C -6.59375 -24.144531 -8.300781 -25.785156 -9.78125 -27.421875 C -11.269531 -29.054688 -12.34375 -30.546875 -13 -31.890625 C -14.550781 -35.015625 -15.125 -37.953125 -14.71875 -40.703125 C -14.3125 -43.453125 -13.234375 -45.878906 -11.484375 -47.984375 C -9.742188 -50.085938 -7.6875 -51.726562 -5.3125 -52.90625 C -2.46875 -54.3125 0.398438 -54.945312 3.296875 -54.8125 C 6.203125 -54.6875 8.910156 -53.726562 11.421875 -51.9375 C 13.941406 -50.144531 16.09375 -47.453125 17.875 -43.859375 C 18.332031 -42.929688 18.75 -41.9375 19.125 -40.875 L 8.046875 -35.484375 C 7.617188 -36.992188 7.144531 -38.269531 6.625 -39.3125 C 5.65625 -41.269531 4.609375 -42.515625 3.484375 -43.046875 C 2.367188 -43.585938 1.328125 -43.625 0.359375 -43.15625 C -0.429688 -42.757812 -1.078125 -41.992188 -1.578125 -40.859375 C -2.085938 -39.734375 -1.859375 -38.1875 -0.890625 -36.21875 C -0.242188 -34.925781 0.785156 -33.472656 2.203125 -31.859375 C 3.617188 -30.253906 5.472656 -28.660156 7.765625 -27.078125 C 12.179688 -24.046875 15.914062 -21.203125 18.96875 -18.546875 C 22.019531 -15.898438 24.28125 -13.09375 25.75 -10.125 C 27.269531 -7.039062 27.820312 -4.046875 27.40625 -1.140625 C 26.988281 1.765625 25.898438 4.34375 24.140625 6.59375 C 22.390625 8.84375 20.285156 10.578125 17.828125 11.796875 C 15.316406 13.035156 12.585938 13.625 9.640625 13.5625 C 6.703125 13.507812 3.882812 12.640625 1.1875 10.953125 C -1.507812 9.265625 -3.765625 6.582031 -5.578125 2.90625 C -6.066406 1.90625 -6.507812 0.851562 -6.90625 -0.25 Z M -6.90625 -0.25 "/></g></g></g><g fill="#ffffff" fill-opacity="1"><g transform="translate(91.76087, 219.173889)"><g><path d="M 52.15625 -55.5 L 45.953125 -51.984375 C 48.003906 -49.035156 49.726562 -45.789062 51.125 -42.25 C 52.53125 -38.71875 53.519531 -35.132812 54.09375 -31.5 C 54.664062 -27.863281 54.757812 -24.394531 54.375 -21.09375 C 53.988281 -17.800781 53.066406 -14.894531 51.609375 -12.375 C 50.148438 -9.851562 48.09375 -7.960938 45.4375 -6.703125 C 42.289062 -6.535156 39.347656 -7.175781 36.609375 -8.625 C 33.867188 -10.082031 31.332031 -11.722656 29 -13.546875 C 29.007812 -10.878906 28.441406 -8.304688 27.296875 -5.828125 C 26.160156 -3.347656 24.335938 -1.5 21.828125 -0.28125 C 18.148438 -0.101562 14.6875 -0.644531 11.4375 -1.90625 C 8.195312 -3.175781 5.328125 -5.054688 2.828125 -7.546875 C 0.335938 -10.035156 -1.582031 -12.988281 -2.9375 -16.40625 C -4.300781 -19.820312 -4.960938 -23.566406 -4.921875 -27.640625 L 6.890625 -30.859375 C 6.703125 -28.734375 6.929688 -26.515625 7.578125 -24.203125 C 8.234375 -21.890625 9.148438 -19.722656 10.328125 -17.703125 C 11.503906 -15.679688 12.859375 -13.992188 14.390625 -12.640625 C 15.921875 -11.296875 17.460938 -10.523438 19.015625 -10.328125 C 20.535156 -12.140625 21.195312 -14.476562 21 -17.34375 C 20.800781 -20.207031 20.265625 -23.4375 19.390625 -27.03125 L 19.53125 -27.0625 L 29.109375 -30.75 C 29.722656 -28.695312 30.800781 -26.789062 32.34375 -25.03125 C 33.882812 -23.269531 35.582031 -21.820312 37.4375 -20.6875 C 39.289062 -19.5625 41.019531 -18.875 42.625 -18.625 C 43.90625 -20.132812 44.613281 -22.054688 44.75 -24.390625 C 44.882812 -26.722656 44.582031 -29.25 43.84375 -31.96875 C 43.101562 -34.6875 42.003906 -37.441406 40.546875 -40.234375 C 39.085938 -43.023438 37.382812 -45.640625 35.4375 -48.078125 C 33.488281 -50.523438 31.390625 -52.601562 29.140625 -54.3125 C 31.441406 -55.8125 33.929688 -57.675781 36.609375 -59.90625 C 39.296875 -62.132812 42.53125 -64.828125 46.3125 -67.984375 Z M 52.15625 -55.5 "/></g></g></g><g fill="#ffffff" fill-opacity="1"><g transform="translate(153.922783, 203.381824)"><g><path d="M 21.453125 -43.9375 C 25.367188 -44.132812 28.59375 -43.628906 31.125 -42.421875 C 33.65625 -41.222656 35.570312 -39.554688 36.875 -37.421875 C 38.175781 -35.285156 38.894531 -32.875 39.03125 -30.1875 C 39.1875 -27.101562 38.59375 -24.488281 37.25 -22.34375 C 35.90625 -20.207031 34.019531 -18.457031 31.59375 -17.09375 C 29.164062 -15.738281 26.394531 -14.703125 23.28125 -13.984375 C 20.164062 -13.265625 16.9375 -12.820312 13.59375 -12.65625 C 11.394531 -12.539062 9.148438 -12.519531 6.859375 -12.59375 C 4.578125 -12.664062 2.304688 -12.8125 0.046875 -13.03125 L -0.546875 -24.96875 C 0.109375 -24.8125 0.753906 -24.664062 1.390625 -24.53125 C 2.023438 -24.40625 2.695312 -24.289062 3.40625 -24.1875 C 3.457031 -27.832031 4.257812 -31.101562 5.8125 -34 C 7.375 -36.90625 9.5 -39.242188 12.1875 -41.015625 C 14.875 -42.785156 17.960938 -43.757812 21.453125 -43.9375 Z M 17.609375 -22.9375 C 19.472656 -23.03125 21.164062 -23.300781 22.6875 -23.75 C 24.207031 -24.207031 25.421875 -24.890625 26.328125 -25.796875 C 27.242188 -26.703125 27.664062 -27.878906 27.59375 -29.328125 C 27.519531 -30.773438 26.851562 -31.921875 25.59375 -32.765625 C 24.34375 -33.609375 22.925781 -33.988281 21.34375 -33.90625 C 19.75 -33.820312 18.382812 -33.273438 17.25 -32.265625 C 16.113281 -31.265625 15.265625 -30.023438 14.703125 -28.546875 C 14.148438 -27.066406 13.910156 -25.582031 13.984375 -24.09375 C 13.992188 -23.90625 14.003906 -23.71875 14.015625 -23.53125 C 14.023438 -23.34375 14.0625 -23.132812 14.125 -22.90625 C 14.726562 -22.882812 15.320312 -22.878906 15.90625 -22.890625 C 16.488281 -22.898438 17.054688 -22.914062 17.609375 -22.9375 Z M 16.25 -11.25 C 18.09375 -8.8125 20.347656 -6.84375 23.015625 -5.34375 C 25.679688 -3.851562 28.488281 -2.992188 31.4375 -2.765625 L 32.125 10.859375 C 27.769531 10.609375 23.734375 9.46875 20.015625 7.4375 C 16.296875 5.40625 13.113281 2.765625 10.46875 -0.484375 C 7.832031 -3.742188 5.882812 -7.328125 4.625 -11.234375 C 6.488281 -11.085938 8.039062 -10.988281 9.28125 -10.9375 C 10.519531 -10.882812 11.675781 -10.882812 12.75 -10.9375 C 13.3125 -10.957031 13.882812 -10.992188 14.46875 -11.046875 C 15.050781 -11.097656 15.644531 -11.164062 16.25 -11.25 Z M 16.25 -11.25 "/></g></g></g><g fill="#ffffff" fill-opacity="1"><g transform="translate(194.183117, 201.22011)"><g><path d="M 33.015625 -28.875 C 36.117188 -28.507812 38.445312 -27.210938 40 -24.984375 C 41.550781 -22.753906 42.378906 -19.929688 42.484375 -16.515625 C 42.597656 -13.109375 42.03125 -9.414062 40.78125 -5.4375 L 27.5 -6.984375 C 28.257812 -8.960938 28.753906 -10.757812 28.984375 -12.375 C 29.222656 -13.988281 29.117188 -15.300781 28.671875 -16.3125 C 28.222656 -17.332031 27.304688 -17.925781 25.921875 -18.09375 C 23.972656 -18.320312 22.1875 -17.816406 20.5625 -16.578125 C 18.945312 -15.335938 17.609375 -13.625 16.546875 -11.4375 C 15.492188 -9.257812 14.890625 -6.890625 14.734375 -4.328125 C 14.929688 -1.953125 15.273438 0.5 15.765625 3.03125 L 5.5 1.828125 C 4.101562 -4.710938 3.4375 -10.890625 3.5 -16.703125 C 3.570312 -22.515625 4.445312 -27.96875 6.125 -33.0625 L 19.609375 -31.484375 C 18.804688 -29.984375 18.109375 -28.390625 17.515625 -26.703125 C 16.921875 -25.023438 16.40625 -23.269531 15.96875 -21.4375 C 17.757812 -24 20.054688 -26.03125 22.859375 -27.53125 C 25.671875 -29.03125 29.054688 -29.476562 33.015625 -28.875 Z M 33.015625 -28.875 "/></g></g></g><g fill="#ffffff" fill-opacity="1"><g transform="translate(234.274913, 205.935412)"><g><path d="M 21.828125 -22.875 C 20.566406 -21.15625 19.554688 -19.175781 18.796875 -16.9375 C 18.046875 -14.707031 17.59375 -12.460938 17.4375 -10.203125 C 17.28125 -7.953125 17.457031 -5.894531 17.96875 -4.03125 C 18.476562 -2.164062 19.347656 -0.742188 20.578125 0.234375 C 22.484375 -0.472656 24.160156 -1.820312 25.609375 -3.8125 C 27.066406 -5.800781 28.28125 -8.207031 29.25 -11.03125 C 30.226562 -13.851562 30.914062 -16.859375 31.3125 -20.046875 C 31.71875 -23.234375 31.769531 -26.394531 31.46875 -29.53125 C 31.164062 -32.664062 30.488281 -35.546875 29.4375 -38.171875 C 32.1875 -38.253906 35.28125 -38.554688 38.71875 -39.078125 C 42.164062 -39.609375 46.320312 -40.253906 51.1875 -41.015625 L 49.78125 -27.3125 L 42.625 -27.515625 C 42.863281 -23.921875 42.671875 -20.25 42.046875 -16.5 C 41.421875 -12.75 40.414062 -9.164062 39.03125 -5.75 C 37.65625 -2.332031 35.953125 0.6875 33.921875 3.3125 C 31.898438 5.9375 29.609375 7.953125 27.046875 9.359375 C 24.484375 10.765625 21.75 11.316406 18.84375 11.015625 C 15.59375 9.273438 12.90625 7.023438 10.78125 4.265625 C 8.65625 1.503906 7.164062 -1.582031 6.3125 -5 C 5.46875 -8.414062 5.34375 -11.9375 5.9375 -15.5625 C 6.539062 -19.195312 7.914062 -22.75 10.0625 -26.21875 Z M 21.828125 -22.875 "/></g></g></g><g fill="#ffffff" fill-opacity="1"><g transform="translate(269.772633, 215.735143)"><g><path d="M 39.515625 -28.78125 C 43.066406 -27.125 45.675781 -25.171875 47.34375 -22.921875 C 49.019531 -20.679688 49.9375 -18.316406 50.09375 -15.828125 C 50.25 -13.335938 49.757812 -10.867188 48.625 -8.421875 C 47.3125 -5.628906 45.5625 -3.597656 43.375 -2.328125 C 41.1875 -1.066406 38.703125 -0.398438 35.921875 -0.328125 C 33.140625 -0.265625 30.203125 -0.644531 27.109375 -1.46875 C 24.023438 -2.289062 20.960938 -3.410156 17.921875 -4.828125 C 15.929688 -5.753906 13.941406 -6.785156 11.953125 -7.921875 C 9.972656 -9.054688 8.035156 -10.25 6.140625 -11.5 L 11.203125 -22.328125 C 11.703125 -21.890625 12.203125 -21.460938 12.703125 -21.046875 C 13.210938 -20.640625 13.75 -20.21875 14.3125 -19.78125 C 16.0625 -22.976562 18.304688 -25.492188 21.046875 -27.328125 C 23.796875 -29.171875 26.769531 -30.242188 29.96875 -30.546875 C 33.164062 -30.847656 36.347656 -30.257812 39.515625 -28.78125 Z M 26.296875 -12.046875 C 27.992188 -11.253906 29.617188 -10.703125 31.171875 -10.390625 C 32.722656 -10.078125 34.113281 -10.109375 35.34375 -10.484375 C 36.570312 -10.867188 37.492188 -11.71875 38.109375 -13.03125 C 38.722656 -14.34375 38.671875 -15.660156 37.953125 -16.984375 C 37.234375 -18.316406 36.15625 -19.316406 34.71875 -19.984375 C 33.269531 -20.660156 31.804688 -20.816406 30.328125 -20.453125 C 28.859375 -20.085938 27.53125 -19.382812 26.34375 -18.34375 C 25.15625 -17.300781 24.25 -16.109375 23.625 -14.765625 C 23.539062 -14.597656 23.457031 -14.425781 23.375 -14.25 C 23.300781 -14.082031 23.238281 -13.878906 23.1875 -13.640625 C 23.71875 -13.335938 24.242188 -13.054688 24.765625 -12.796875 C 25.285156 -12.535156 25.796875 -12.285156 26.296875 -12.046875 Z M 19.609375 -2.34375 C 20.117188 0.664062 21.195312 3.457031 22.84375 6.03125 C 24.5 8.601562 26.582031 10.679688 29.09375 12.265625 L 23.328125 24.625 C 19.585938 22.351562 16.550781 19.453125 14.21875 15.921875 C 11.882812 12.390625 10.304688 8.566406 9.484375 4.453125 C 8.671875 0.347656 8.617188 -3.722656 9.328125 -7.765625 C 10.910156 -6.753906 12.238281 -5.9375 13.3125 -5.3125 C 14.382812 -4.6875 15.40625 -4.148438 16.375 -3.703125 C 16.882812 -3.460938 17.410156 -3.226562 17.953125 -3 C 18.492188 -2.769531 19.046875 -2.550781 19.609375 -2.34375 Z M 19.609375 -2.34375 "/></g></g></g></svg>